<svg id="Layer_1" data-name="Layer 1" xmlns="http://www.w3.org/2000/svg" viewBox="0 0 463.81 170"><defs><style>.cls-1{fill:#a67c52;}</style></defs><g id="dimsummusicmixer"><path id="dimsum" class="cls-1" d="M0,1.64A171.84,171.84,0,0,1,25.13,0C40.21,0,49.67,2.45,57.5,7.83c8.65,6,14.26,15.78,14.26,30.27,0,16-6.08,26.42-13.79,32.38-8.65,6.78-21.5,9.81-36.93,9.81a128.54,128.54,0,0,1-21-1.4ZM21.16,63.58a26.49,26.49,0,0,0,4.44.23c13.67.24,23.72-7.36,23.72-25.12,0-15.31-9.11-22.56-21.74-22.56a31.31,31.31,0,0,0-6.42.47ZM85.54,46.19v33.7H76.49V46.19Zm34.7,21.65c-.1-3.85-.2-8.35-.15-13.6h-.15c-1,4.45-2.45,9.5-3.55,13.2L113,79.19H106l-2.85-11.7c-.85-3.65-1.9-8.65-2.65-13.25h-.1c-.2,4.75-.4,9.75-.55,13.6l-.5,12H91l2-33.7h12.15l2.25,9.05c.9,3.75,1.9,8.25,2.6,12.35h.2c.95-4.1,2-8.85,3-12.4l2.5-9h11.9l1.7,33.7h-8.8Zm15.35,3a20.48,20.48,0,0,0,8.75,2.1c3.1,0,4.6-1,4.6-2.75s-1.5-2.6-5.3-3.9c-5.7-2-9.45-5.15-9.45-10.15,0-5.95,5-10.55,13.5-10.55a21.81,21.81,0,0,1,9.15,1.75l-1.9,7.2a17.62,17.62,0,0,0-7.35-1.6c-2.75,0-4.25,1-4.25,2.5,0,1.7,1.8,2.4,6,4,6.05,2.2,8.8,5.45,8.8,10.15,0,5.8-4.55,10.8-14.4,10.8a23.77,23.77,0,0,1-9.9-2.1ZM172,46.19v19.1c0,5.1,1.75,8,5.3,8s5.35-2.65,5.35-8V46.19h9.05v18.6c0,10.4-5.2,15.65-14.65,15.65-9.25,0-14.1-5-14.1-15.9V46.19Zm54.35,21.65c-.1-3.85-.2-8.35-.15-13.6h-.15c-1.05,4.45-2.45,9.5-3.55,13.2l-3.35,11.75h-7.05l-2.85-11.7c-.85-3.65-1.9-8.65-2.65-13.25h-.1c-.2,4.75-.4,9.75-.55,13.6l-.5,12h-8.3l2.05-33.7h12.15l2.25,9.05c.9,3.75,1.9,8.25,2.6,12.35h.2c.95-4.1,2.05-8.85,3.05-12.4l2.5-9h11.9l1.7,33.7h-8.8Z"/><path id="music" d="M171.48,133.62c-.16-6.21-.32-13.47-.24-21.94H171c-1.69,7.18-4,15.33-5.72,21.3l-5.41,19H148.48l-4.59-18.88c-1.38-5.89-3.07-14-4.28-21.38h-.16c-.32,7.66-.65,15.73-.89,21.94l-.81,19.45H124.36l3.31-54.38h19.6l3.64,14.6c1.45,6,3.06,13.31,4.19,19.93h.32c1.54-6.62,3.31-14.28,4.92-20l4-14.52h19.2l2.74,54.38h-14.2Zm29.39-34.93v19.1c0,5.1,1.75,8,5.3,8s5.35-2.65,5.35-8V98.69h9v18.6c0,10.4-5.2,15.65-14.65,15.65-9.25,0-14.1-5-14.1-15.9V98.69Zm26.45,24.7a20.48,20.48,0,0,0,8.75,2.1c3.1,0,4.6-1,4.6-2.75s-1.5-2.6-5.3-3.9c-5.7-2-9.45-5.15-9.45-10.15,0-6,5-10.55,13.5-10.55a21.81,21.81,0,0,1,9.15,1.75l-1.9,7.2a17.62,17.62,0,0,0-7.35-1.6c-2.75,0-4.25,1-4.25,2.5,0,1.7,1.8,2.4,6.05,4,6,2.2,8.8,5.45,8.8,10.15,0,5.8-4.55,10.8-14.4,10.8a23.77,23.77,0,0,1-9.9-2.1Zm36.5-24.7v33.7h-9V98.69Zm31.45,32.85a22.79,22.79,0,0,1-8.5,1.4c-12.6,0-18.15-7.9-18.15-16.85,0-11.9,8.7-18,18.75-18a20.26,20.26,0,0,1,8.45,1.5l-1.75,7.1a16.45,16.45,0,0,0-6.25-1.2c-5.2,0-9.7,3-9.7,9.95,0,6.15,3.65,10,9.85,10a18.61,18.61,0,0,0,6-1Z"/><path id="mixer" d="M330.83,158c-.1-3.85-.2-8.35-.15-13.6h-.15c-1,4.45-2.45,9.5-3.55,13.2l-3.35,11.75h-7.05l-2.85-11.7c-.85-3.65-1.9-8.65-2.65-13.25H311c-.2,4.75-.4,9.75-.55,13.6l-.5,12.05h-8.3l2.05-33.7h12.15l2.25,9c.9,3.75,1.9,8.25,2.6,12.35h.2c.95-4.1,2.05-8.85,3.05-12.4l2.5-9h11.9L340,170h-8.81Zm23.8-21.65V170h-9.05V136.3Zm23.6,33.7-2.5-5.5c-1-2.15-1.7-3.9-2.6-5.85H373c-.6,1.95-1.35,3.7-2.15,5.8L368.63,170H358.38L367.83,153l-9.15-16.65h10.4l2.25,5.35c.9,2,1.55,3.65,2.25,5.55h.15c.75-2.2,1.25-3.65,1.95-5.5l2.1-5.4h10.3l-9.2,16.45,9.8,17.25Zm35.3-13.6h-12.1v6.2H415V170h-22.6V136.3h21.9v7.35H401.43v5.45h12.1ZM420,115.93a121.51,121.51,0,0,1,17.73-1.14c8.37,0,14.39,1.14,18.53,4.23,3.5,2.68,5.45,6.58,5.45,12,0,6.83-5.12,11.71-9.43,13.25v.33c3.66,1.54,5.61,5,7,9.76,1.71,5.61,3.5,13.57,4.56,15.69H448.76c-.81-1.63-2.19-5.86-3.82-12.6-1.46-6.59-3.49-8-8.05-8h-2.35V170H420Zm14.56,23h3.82c5.53,0,8.7-2.77,8.7-6.83s-2.69-6.43-7.57-6.51a25.32,25.32,0,0,0-4.95.33Z"/></g></svg>